<svg xmlns="http://www.w3.org/2000/svg"  viewBox="0 0 64 64" width="64px" height="64px" baseProfile="basic"><linearGradient id="Xg1Gq9DZzDTN3bgkPCHrla" x1="32" x2="32" y1="8.14" y2="55.861" gradientUnits="userSpaceOnUse"><stop offset="0" stop-color="#1a6dff"/><stop offset="1" stop-color="#c822ff"/></linearGradient><path fill="url(#Xg1Gq9DZzDTN3bgkPCHrla)" d="M52,55.86c-0.234,0-0.466-0.082-0.65-0.24l-17-14.561C34.128,40.869,34,40.592,34,40.3v-2.985	L12.651,55.619c-0.298,0.255-0.714,0.313-1.069,0.149C11.228,55.605,11,55.251,11,54.86V43.43c0-0.292,0.128-0.569,0.349-0.759	l12.454-10.68L11.35,21.33C11.128,21.14,11,20.862,11,20.57V9.14c0-0.391,0.228-0.745,0.582-0.908	c0.355-0.163,0.772-0.104,1.068,0.148l17,14.561c0.222,0.19,0.35,0.468,0.35,0.76v2.985L51.349,8.381	c0.298-0.256,0.715-0.312,1.069-0.149S53,8.749,53,9.14V20.57c0,0.292-0.128,0.569-0.349,0.759l-12.454,10.68L52.65,42.67	c0.222,0.19,0.35,0.468,0.35,0.76V54.86c0,0.391-0.228,0.745-0.582,0.908C52.284,55.83,52.142,55.86,52,55.86z M36,39.84l15,12.848	V43.89L38.01,32.77c-0.222-0.19-0.35-0.468-0.35-0.76s0.127-0.569,0.349-0.759L51,20.11v-8.796L29.651,29.619	c-0.298,0.255-0.715,0.312-1.069,0.149S28,29.251,28,28.86v-4.7L13,11.312v8.798l12.99,11.12c0.222,0.19,0.35,0.468,0.35,0.76	s-0.127,0.569-0.349,0.759L13,43.89v8.796l21.349-18.305c0.298-0.256,0.714-0.312,1.069-0.149C35.772,34.395,36,34.749,36,35.14	V39.84z"/><linearGradient id="Xg1Gq9DZzDTN3bgkPCHrlb" x1="32" x2="32" y1="15.659" y2="48.341" gradientUnits="userSpaceOnUse"><stop offset="0" stop-color="#6dc7ff"/><stop offset="1" stop-color="#e6abff"/></linearGradient><path fill="url(#Xg1Gq9DZzDTN3bgkPCHrlb)" d="M38,38.919v-3.525l11,9.417v3.53L38,38.919z M15,44.809l11-9.433v0.009	l23-19.721v3.527l-11,9.433v-0.009L15,48.336V44.809z M15,19.189v-3.53l11,9.422v3.525L15,19.189z" opacity=".58"/></svg>